<?xml version="1.0" encoding="UTF-8" standalone="no"?><!DOCTYPE svg PUBLIC "-//W3C//DTD SVG 1.1//EN" "http://www.w3.org/Graphics/SVG/1.1/DTD/svg11.dtd"><svg width="100%" height="100%" viewBox="0 0 20 20" version="1.1" xmlns="http://www.w3.org/2000/svg" xmlns:xlink="http://www.w3.org/1999/xlink" xml:space="preserve" xmlns:serif="http://www.serif.com/" style="fill-rule:evenodd;clip-rule:evenodd;stroke-linejoin:round;stroke-miterlimit:2;"><rect id="アートボード7" x="0" y="0" width="20" height="20" style="fill:none;"/><clipPath id="_clip1"><rect x="0" y="0" width="20" height="20"/></clipPath><g clip-path="url(#_clip1)"><g><path d="M20,10c-0,-5.523 -4.477,-10 -10,-10c-5.523,0 -10,4.477 -10,10c-0,4.991 3.657,9.128 8.437,9.879l0,-6.988l-2.539,-0l0,-2.891l2.539,0l0,-2.203c0,-2.506 1.493,-3.891 3.778,-3.891c1.094,0 2.238,0.196 2.238,0.196l0,2.461l-1.261,-0c-1.242,-0 -1.63,0.77 -1.63,1.561l0,1.876l2.774,0l-0.443,2.891l-2.331,-0l0,6.988c4.781,-0.751 8.438,-4.888 8.438,-9.879Z" style="fill:#1877f2;fill-rule:nonzero;"/><path d="M13.893,12.891l0.443,-2.891l-2.774,0l0,-1.876c0,-0.791 0.388,-1.562 1.63,-1.562l1.261,0l0,-2.46c0,-0 -1.144,-0.196 -2.238,-0.196c-2.285,0 -3.778,1.385 -3.778,3.891l0,2.203l-2.539,0l0,2.891l2.539,-0l0,6.988c0.51,0.079 1.031,0.121 1.563,0.121c0.532,0 1.053,-0.042 1.562,-0.121l0,-6.988l2.331,-0Z" style="fill:#fff;fill-rule:nonzero;"/></g></g></svg>