<?xml version="1.0" encoding="UTF-8" standalone="no"?><!DOCTYPE svg PUBLIC "-//W3C//DTD SVG 1.1//EN" "http://www.w3.org/Graphics/SVG/1.1/DTD/svg11.dtd"><svg width="100%" height="100%" viewBox="0 0 64 64" version="1.1" xmlns="http://www.w3.org/2000/svg" xmlns:xlink="http://www.w3.org/1999/xlink" xml:space="preserve" xmlns:serif="http://www.serif.com/" style="fill-rule:evenodd;clip-rule:evenodd;stroke-linejoin:round;stroke-miterlimit:2;"><g><path d="M31.535,28.011c0.74,0.618 1.415,1.313 2.013,2.073l0.002,-0.001l23.301,29.663l-17.499,0l-13.802,-17.571c0.124,-4.704 2.166,-9.364 5.985,-14.164Zm-8.697,-10.085c-1.807,1.391 -3.461,2.779 -4.961,4.173c-3.091,2.87 -5.549,5.775 -7.381,8.759c-0.865,-1.818 -1.35,-3.856 -1.35,-6.009l0,-20.595l13.692,-0l-0,13.672Z" style="fill:#363581;fill-rule:nonzero;"/><path d="M56.854,4.254c-22.678,13.857 -34.016,26.086 -34.016,38.379l-0,17.113l-13.692,0c0,-5.47 -0.001,-9.5 0,-14.97c0.004,-15.047 14.237,-26.529 41.75,-40.522l5.958,-0Z" style="fill:#00a1e9;fill-rule:nonzero;"/></g></svg>