<?xml version="1.0" encoding="UTF-8" standalone="no"?><!DOCTYPE svg PUBLIC "-//W3C//DTD SVG 1.1//EN" "http://www.w3.org/Graphics/SVG/1.1/DTD/svg11.dtd"><svg width="100%" height="100%" viewBox="0 0 20 20" version="1.1" xmlns="http://www.w3.org/2000/svg" xmlns:xlink="http://www.w3.org/1999/xlink" xml:space="preserve" xmlns:serif="http://www.serif.com/" style="fill-rule:evenodd;clip-rule:evenodd;stroke-linejoin:round;stroke-miterlimit:2;"><rect id="アートボード7" x="0" y="0" width="20" height="20" style="fill:none;"/><clipPath id="_clip1"><rect x="0" y="0" width="20" height="20"/></clipPath><g clip-path="url(#_clip1)"><g><path d="M20,10c0,5.523 -4.477,10 -10,10c-5.523,0 -10,-4.477 -10,-10c0,-5.523 4.477,-10 10,-10c5.523,0 10,4.477 10,10" style="fill:#00b900;fill-rule:nonzero;"/><path d="M16.652,9.4c-0,-2.977 -2.984,-5.398 -6.652,-5.398c-3.667,-0 -6.651,2.421 -6.651,5.398c-0,2.668 2.366,4.903 5.562,5.325c0.217,0.047 0.512,0.143 0.586,0.328c0.067,0.168 0.044,0.432 0.022,0.601c-0,0 -0.078,0.47 -0.095,0.57c-0.029,0.168 -0.134,0.658 0.576,0.359c0.71,-0.3 3.831,-2.256 5.226,-3.862l-0,-0c0.964,-1.057 1.426,-2.13 1.426,-3.321" style="fill:#fff;fill-rule:nonzero;"/><path d="M8.649,7.961l-0.467,0c-0.072,0 -0.13,0.058 -0.13,0.13l0,2.898c0,0.071 0.058,0.129 0.13,0.129l0.467,0c0.071,0 0.129,-0.058 0.129,-0.129l0,-2.898c0,-0.072 -0.058,-0.13 -0.129,-0.13" style="fill:#00b900;fill-rule:nonzero;"/><path d="M11.86,7.961l-0.467,0c-0.071,0 -0.129,0.058 -0.129,0.13l-0,1.721l-1.328,-1.793c-0.003,-0.005 -0.007,-0.009 -0.01,-0.013c-0.001,-0.001 -0.001,-0.001 -0.001,-0.001c-0.003,-0.003 -0.005,-0.006 -0.008,-0.008c-0.001,-0.001 -0.002,-0.002 -0.002,-0.002c-0.003,-0.002 -0.005,-0.004 -0.007,-0.006c-0.001,-0.001 -0.003,-0.002 -0.004,-0.003c-0.002,-0.001 -0.004,-0.003 -0.006,-0.004c-0.002,-0.001 -0.003,-0.002 -0.004,-0.003c-0.003,-0.001 -0.005,-0.002 -0.007,-0.004c-0.002,-0 -0.003,-0.001 -0.004,-0.002c-0.003,-0.001 -0.005,-0.002 -0.008,-0.003c-0.001,-0 -0.002,-0.001 -0.004,-0.001c-0.002,-0.001 -0.005,-0.002 -0.008,-0.003c-0.001,-0 -0.003,-0 -0.004,-0.001c-0.003,-0 -0.005,-0.001 -0.008,-0.002c-0.001,0 -0.003,-0 -0.005,-0c-0.002,-0.001 -0.005,-0.001 -0.007,-0.001c-0.002,-0 -0.004,-0 -0.007,-0.001c-0.001,0 -0.003,0 -0.004,0l-0.467,0c-0.071,0 -0.129,0.058 -0.129,0.13l-0,2.898c-0,0.071 0.058,0.129 0.129,0.129l0.467,0c0.071,0 0.13,-0.058 0.13,-0.129l-0,-1.721l1.329,1.795c0.009,0.013 0.021,0.024 0.033,0.033c0.001,-0 0.001,0 0.002,0.001c0.002,0.001 0.005,0.003 0.007,0.004c0.002,0.001 0.003,0.002 0.004,0.002c0.002,0.001 0.004,0.002 0.006,0.003c0.003,0.001 0.004,0.002 0.007,0.003c0.001,0.001 0.002,0.001 0.004,0.002c0.003,0 0.006,0.001 0.008,0.002l0.002,0.001c0.011,0.003 0.022,0.004 0.033,0.004l0.467,0c0.072,0 0.13,-0.058 0.13,-0.129l-0,-2.898c-0,-0.072 -0.058,-0.13 -0.13,-0.13" style="fill:#00b900;fill-rule:nonzero;"/><path d="M7.524,10.392l-1.268,0l0,-2.301c0,-0.072 -0.058,-0.13 -0.129,-0.13l-0.467,0c-0.071,0 -0.129,0.058 -0.129,0.13l-0,2.898c-0,0.035 0.013,0.066 0.036,0.089c0,0.001 0.001,0.002 0.002,0.002c0,0.001 0.001,0.001 0.001,0.002c0.024,0.022 0.055,0.036 0.09,0.036l1.864,0c0.071,0 0.129,-0.058 0.129,-0.129l0,-0.467c0,-0.071 -0.058,-0.13 -0.129,-0.13" style="fill:#00b900;fill-rule:nonzero;"/><path d="M14.437,8.687c0.071,0 0.129,-0.058 0.129,-0.129l-0,-0.467c-0,-0.072 -0.058,-0.13 -0.129,-0.13l-1.865,0c-0.035,0 -0.066,0.014 -0.089,0.037c-0.001,0 -0.001,0.001 -0.002,0.001c-0.001,0.001 -0.001,0.002 -0.002,0.003c-0.022,0.023 -0.036,0.054 -0.036,0.089l0,2.898c0,0.035 0.014,0.066 0.036,0.089c0.001,0.001 0.002,0.002 0.002,0.002c0.001,0.001 0.001,0.002 0.002,0.002c0.023,0.022 0.055,0.036 0.089,0.036l1.865,0c0.071,0 0.129,-0.058 0.129,-0.129l-0,-0.467c-0,-0.071 -0.058,-0.13 -0.129,-0.13l-1.268,0l-0,-0.489l1.268,-0c0.071,-0 0.129,-0.058 0.129,-0.13l-0,-0.466c-0,-0.072 -0.058,-0.13 -0.129,-0.13l-1.268,-0l-0,-0.49l1.268,0Z" style="fill:#00b900;fill-rule:nonzero;"/></g></g></svg>