<?xml version="1.0" encoding="UTF-8" standalone="no"?><!DOCTYPE svg PUBLIC "-//W3C//DTD SVG 1.1//EN" "http://www.w3.org/Graphics/SVG/1.1/DTD/svg11.dtd"><svg width="100%" height="100%" viewBox="0 0 17 20" version="1.1" xmlns="http://www.w3.org/2000/svg" xmlns:xlink="http://www.w3.org/1999/xlink" xml:space="preserve" xmlns:serif="http://www.serif.com/" style="fill-rule:evenodd;clip-rule:evenodd;stroke-linejoin:round;stroke-miterlimit:2;"><rect id="アートボード3" x="0" y="0" width="17" height="20" style="fill:none;"/><path d="M17,9.875c0,-1.794 -1.456,-3.25 -3.25,-3.25l-10.5,0c-1.794,0 -3.25,1.456 -3.25,3.25l0,6.5c0,1.794 1.456,3.25 3.25,3.25l10.5,0c1.794,0 3.25,-1.456 3.25,-3.25l0,-6.5Z"/><path d="M14.5,6.375c-0,-3.311 -2.689,-6 -6,-6c-3.311,0 -6,2.689 -6,6c-0,0 -0,3.5 -0,3.5c-0,3.311 2.689,6 6,6c3.311,0 6,-2.689 6,-6l-0,-3.5Zm-3,-0l-0,3.5c-0,1.656 -1.344,3 -3,3c-1.656,0 -3,-1.344 -3,-3l-0,-3.5c-0,-1.656 1.344,-3 3,-3c1.656,0 3,1.344 3,3Z"/><circle cx="8.5" cy="11" r="1.75" style="fill:#fff;"/><path d="M9.5,12.5c-0,-0.552 -0.448,-1 -1,-1c-0.552,0 -1,0.448 -1,1l-0,3.5c-0,0.552 0.448,1 1,1c0.552,0 1,-0.448 1,-1l-0,-3.5Z" style="fill:#fff;"/></svg>