<?xml version="1.0" encoding="UTF-8" standalone="no"?><!DOCTYPE svg PUBLIC "-//W3C//DTD SVG 1.1//EN" "http://www.w3.org/Graphics/SVG/1.1/DTD/svg11.dtd"><svg width="100%" height="100%" viewBox="0 0 207 241" version="1.1" xmlns="http://www.w3.org/2000/svg" xmlns:xlink="http://www.w3.org/1999/xlink" xml:space="preserve" xmlns:serif="http://www.serif.com/" style="fill-rule:evenodd;clip-rule:evenodd;stroke-linejoin:round;stroke-miterlimit:2;"><g><g><path d="M88.544,124.833l33.176,41.679l42.575,0l-56.694,-71.225l-0.004,0.003c-1.23,-1.543 -2.594,-2.974 -4.078,-4.274c-0.655,0.832 -1.3,1.673 -1.931,2.524c-1.416,1.905 -2.757,3.864 -4.024,5.871c-1.104,1.75 -2.131,3.546 -3.081,5.386c-1.056,2.043 -2.001,4.144 -2.83,6.29c-0.726,1.881 -1.339,3.805 -1.834,5.76c-0.452,1.788 -0.796,3.601 -1.03,5.432c-0.108,0.849 -0.19,1.7 -0.245,2.554Zm-37.109,-27.841c-2.056,-4.327 -3.207,-9.165 -3.207,-14.271l0,-49.452l33.311,0l0,33c-1.898,1.467 -3.77,2.968 -5.615,4.502c-2.407,2.002 -4.762,4.069 -7.062,6.194c-2.027,1.873 -3.997,3.808 -5.906,5.801c-0.549,0.573 -1.09,1.15 -1.629,1.731c-0.517,0.561 -1.029,1.128 -1.536,1.699c-0.692,0.781 -1.374,1.57 -2.044,2.369c-0.638,0.763 -1.266,1.533 -1.882,2.314c-0.84,1.064 -1.656,2.146 -2.449,3.244c-0.68,0.942 -1.342,1.899 -1.981,2.869Z" style="fill:#fff;"/><path d="M164.302,33.269c-55.176,33.273 -82.763,64.667 -82.763,94.184l0,39.059l-33.311,0l0,-39.059c0,-29.223 33.859,-60.617 101.578,-94.184l14.496,0Z" style="fill:#fff;fill-rule:nonzero;"/></g><g><g><path d="M47.486,207.108l-10.995,-14.87l10.516,-10.959l-6.863,0l-10.479,11.291l-0,-11.291l-5.683,0l0,25.829l5.683,0l-0,-7.896l2.988,-3.1l8.007,10.996l6.826,-0Z" style="fill:#fff;fill-rule:nonzero;"/><path d="M76.082,207.108l-11.069,-26.013l-5.24,-0l-11.069,26.013l5.793,0l2.362,-5.793l10.921,0l2.362,5.793l5.94,0Zm-10.331,-10.811l-6.863,-0l3.431,-8.376l3.432,8.376Z" style="fill:#fff;fill-rule:nonzero;"/><path d="M105.896,207.108l-0,-25.829l-6.125,0l-6.789,10.922l-6.79,-10.922l-6.125,0l0,25.829l5.572,0l-0,-16.752l7.195,10.922l0.148,0l7.269,-11.032l-0,16.862l5.645,0Z" style="fill:#fff;fill-rule:nonzero;"/><path d="M131.761,207.108l0,-5.055l-14.021,-0l0,-5.424l12.177,-0l-0,-5.055l-12.177,-0l0,-5.24l13.837,0l0,-5.055l-19.482,0l-0,25.829l19.666,0Z" style="fill:#fff;fill-rule:nonzero;"/><path d="M160.616,194.194l-0,-0.074c-0,-7.269 -5.609,-12.841 -13.726,-12.841l-10.074,0l0,25.829l10.074,0c8.117,0 13.726,-5.645 13.726,-12.914Zm-5.941,0.073c0,4.576 -3.136,7.712 -7.785,7.712l-4.391,0l-0,-15.571l4.391,0c4.649,0 7.785,3.21 7.785,7.786l0,0.073Z" style="fill:#fff;fill-rule:nonzero;"/><path d="M187.884,207.108l-11.07,-26.013l-5.239,-0l-11.069,26.013l5.793,0l2.361,-5.793l10.922,0l2.361,5.793l5.941,0Zm-10.332,-10.811l-6.863,-0l3.432,-8.376l3.431,8.376Z" style="fill:#fff;fill-rule:nonzero;"/></g></g></g><rect id="縦組み" x="0" y="0" width="206.929" height="240.378" style="fill:none;"/></svg>