<?xml version="1.0" encoding="UTF-8" standalone="no"?><!DOCTYPE svg PUBLIC "-//W3C//DTD SVG 1.1//EN" "http://www.w3.org/Graphics/SVG/1.1/DTD/svg11.dtd"><svg width="100%" height="100%" viewBox="0 0 241 49" version="1.1" xmlns="http://www.w3.org/2000/svg" xmlns:xlink="http://www.w3.org/1999/xlink" xml:space="preserve" xmlns:serif="http://www.serif.com/" style="fill-rule:evenodd;clip-rule:evenodd;stroke-linejoin:round;stroke-miterlimit:2;"><g><g><path d="M20.012,20.956c0.661,0.545 1.264,1.158 1.799,1.828l0.001,-0.001l20.828,26.166l-15.641,0l-12.337,-15.499c0.111,-4.15 1.936,-8.26 5.35,-12.494Zm-7.774,-8.896c-1.615,1.227 -3.094,2.452 -4.434,3.681c-2.763,2.532 -4.959,5.094 -6.597,7.727c-0.773,-1.604 -1.206,-3.402 -1.206,-5.301l-0,-18.167l12.237,0l-0,12.06Z" style="fill:#363581;fill-rule:nonzero;"/><path d="M42.642,0c-20.269,12.223 -30.404,23.01 -30.404,33.854l-0,15.095l-12.237,0c-0,-4.825 -0.002,-8.38 -0,-13.205c0.003,-13.273 12.724,-23.401 37.316,-35.744l5.325,0Z" style="fill:#00a1e9;fill-rule:nonzero;"/></g><g><path d="M83.168,48.949l-15.612,-36.687l-7.389,0l-15.611,36.687l8.17,0l3.33,-8.17l15.403,0l3.331,8.17l8.378,0Zm-14.571,-15.247l-9.679,-0l4.84,-11.813l4.839,11.813Z" style="fill:#363581;fill-rule:nonzero;"/><path d="M125.215,48.949l-0,-36.427l-8.639,0l-9.575,15.404l-9.575,-15.404l-8.638,0l-0,36.427l7.858,0l-0,-23.625l10.147,15.403l0.208,0l10.252,-15.559l-0,23.781l7.962,0Z" style="fill:#363581;fill-rule:nonzero;"/><path d="M161.693,48.949l0,-7.129l-19.774,-0l-0,-7.65l17.172,0l0,-7.129l-17.172,0l-0,-7.389l19.514,-0l0,-7.13l-27.476,0l0,36.427l27.736,0Z" style="fill:#363581;fill-rule:nonzero;"/><path d="M202.387,30.736l0,-0.104c0,-10.252 -7.91,-18.11 -19.358,-18.11l-14.206,0l-0,36.427l14.206,0c11.448,0 19.358,-7.962 19.358,-18.213Zm-8.378,0.104c-0,6.453 -4.423,10.876 -10.98,10.876l-6.193,-0l0,-21.96l6.193,-0c6.557,-0 10.98,4.527 10.98,10.98l-0,0.104Z" style="fill:#363581;fill-rule:nonzero;"/><path d="M240.843,48.949l-15.611,-36.687l-7.39,0l-15.611,36.687l8.17,0l3.33,-8.17l15.404,0l3.33,8.17l8.378,0Zm-14.57,-15.247l-9.68,-0l4.84,-11.813l4.84,11.813Z" style="fill:#363581;fill-rule:nonzero;"/></g></g></svg>