<?xml version="1.0" encoding="UTF-8" standalone="no"?><!DOCTYPE svg PUBLIC "-//W3C//DTD SVG 1.1//EN" "http://www.w3.org/Graphics/SVG/1.1/DTD/svg11.dtd"><svg width="100%" height="100%" viewBox="0 0 207 241" version="1.1" xmlns="http://www.w3.org/2000/svg" xmlns:xlink="http://www.w3.org/1999/xlink" xml:space="preserve" xmlns:serif="http://www.serif.com/" style="fill-rule:evenodd;clip-rule:evenodd;stroke-linejoin:round;stroke-miterlimit:2;"><g><rect x="0" y="0" width="206.929" height="240.378" style="fill:#fff;"/><g><path d="M88.544,124.833l33.176,41.679l42.575,0l-56.694,-71.225l-0.004,0.003c-1.23,-1.543 -2.594,-2.974 -4.078,-4.274c-0.655,0.832 -1.3,1.673 -1.931,2.524c-1.416,1.905 -2.757,3.864 -4.024,5.871c-1.104,1.75 -2.131,3.546 -3.081,5.386c-1.056,2.043 -2.001,4.144 -2.83,6.29c-0.726,1.881 -1.339,3.805 -1.834,5.76c-0.452,1.788 -0.796,3.601 -1.03,5.432c-0.108,0.849 -0.19,1.7 -0.245,2.554Zm-37.109,-27.841c-2.056,-4.327 -3.207,-9.165 -3.207,-14.271l0,-49.452l33.311,0l0,33c-1.898,1.467 -3.77,2.968 -5.615,4.502c-2.407,2.002 -4.762,4.069 -7.062,6.194c-2.027,1.873 -3.997,3.808 -5.906,5.801c-0.549,0.573 -1.09,1.15 -1.629,1.731c-0.517,0.561 -1.029,1.128 -1.536,1.699c-0.692,0.781 -1.374,1.57 -2.044,2.369c-0.638,0.763 -1.266,1.533 -1.882,2.314c-0.84,1.064 -1.656,2.146 -2.449,3.244c-0.68,0.942 -1.342,1.899 -1.981,2.869Z" style="fill:#363581;"/><path d="M164.302,33.269c-55.176,33.273 -82.763,64.667 -82.763,94.184l0,39.059l-33.311,0l0,-39.059c0,-29.223 33.859,-60.617 101.578,-94.184l14.496,0Z" style="fill:#00a1e9;fill-rule:nonzero;"/></g><g><text x="20.883px" y="207.108px" style="font-family:'Gotham-Bold', 'Gotham';font-weight:700;font-size:36.898px;fill:#363581;">KAME</text><text x="133.717px" y="207.108px" style="font-family:'Gotham-Bold', 'Gotham';font-weight:700;font-size:36.898px;fill:#363581;">D</text><text x="159.62px" y="207.108px" style="font-family:'Gotham-Bold', 'Gotham';font-weight:700;font-size:36.898px;fill:#363581;">A</text></g></g><rect id="縦組み" x="0" y="0" width="206.929" height="240.378" style="fill:none;"/></svg>