<?xml version="1.0" encoding="UTF-8" standalone="no"?><!DOCTYPE svg PUBLIC "-//W3C//DTD SVG 1.1//EN" "http://www.w3.org/Graphics/SVG/1.1/DTD/svg11.dtd"><svg width="100%" height="100%" viewBox="0 0 971 84" version="1.1" xmlns="http://www.w3.org/2000/svg" xmlns:xlink="http://www.w3.org/1999/xlink" xml:space="preserve" xmlns:serif="http://www.serif.com/" style="fill-rule:evenodd;clip-rule:evenodd;stroke-linejoin:round;stroke-miterlimit:2;"><rect id="アートボード2" x="0" y="-0" width="970.833" height="83.333" style="fill:none;"/><clipPath id="_clip1"><rect x="0" y="-0" width="970.833" height="83.333"/></clipPath><g clip-path="url(#_clip1)"><g><path d="M0,67.071l7.648,0l-0,-66.192l-7.648,0l0,66.192Zm29.844,0l9.625,0l-22.503,-28.085l-5.626,4.878l18.504,23.207Zm-23.163,-17.053l7.076,-6.813l1.846,-1.802l22.504,-21.712l-9.274,-0l-20.482,20.701l-2.022,0l0.352,9.626Z" style="fill-rule:nonzero;"/><path d="M60.522,67.906c4.513,0 8.395,-0.989 11.647,-2.967c3.253,-1.978 5.766,-4.798 7.538,-8.46c1.773,-3.663 2.659,-8.014 2.659,-13.054l0,-0.088c0,-5.069 -0.886,-9.435 -2.659,-13.098c-1.772,-3.663 -4.285,-6.476 -7.538,-8.439c-3.252,-1.963 -7.134,-2.945 -11.647,-2.945c-4.483,0 -8.358,0.982 -11.625,2.945c-3.267,1.963 -5.787,4.776 -7.56,8.439c-1.773,3.663 -2.659,8.029 -2.659,13.098l-0,0.088c-0,5.04 0.886,9.391 2.659,13.054c1.773,3.662 4.293,6.482 7.56,8.46c3.267,1.978 7.142,2.967 11.625,2.967Zm0,-6.769c-2.989,0 -5.523,-0.703 -7.604,-2.109c-2.08,-1.407 -3.67,-3.428 -4.768,-6.066c-1.099,-2.637 -1.649,-5.816 -1.649,-9.537l0,-0.088c0,-3.751 0.55,-6.945 1.649,-9.582c1.098,-2.637 2.688,-4.651 4.768,-6.043c2.081,-1.392 4.615,-2.088 7.604,-2.088c2.989,0 5.523,0.696 7.604,2.088c2.08,1.392 3.67,3.406 4.769,6.043c1.098,2.637 1.648,5.831 1.648,9.582l-0,0.088c-0,3.721 -0.55,6.9 -1.648,9.537c-1.099,2.638 -2.689,4.659 -4.769,6.066c-2.081,1.406 -4.615,2.109 -7.604,2.109Z" style="fill-rule:nonzero;"/><rect x="88.168" y="37.975" width="29.536" height="7.12" style="fill-rule:nonzero;"/><path d="M127.857,67.071l7.648,0l-0,-28.041c-0,-2.784 0.505,-5.172 1.516,-7.165c1.011,-1.992 2.439,-3.53 4.285,-4.615c1.846,-1.084 4.029,-1.626 6.549,-1.626c3.78,0 6.571,1.033 8.373,3.099c1.802,2.066 2.703,5.237 2.703,9.515l0,28.833l7.648,0l-0,-30.679c-0,-3.75 -0.645,-6.929 -1.934,-9.537c-1.289,-2.608 -3.165,-4.593 -5.626,-5.956c-2.461,-1.362 -5.465,-2.044 -9.01,-2.044c-3.487,0 -6.359,0.696 -8.615,2.088c-2.256,1.392 -3.985,3.348 -5.186,5.868l-0.703,-0l-0,-25.932l-7.648,0l-0,66.192Z" style="fill-rule:nonzero;"/><path d="M195.28,67.906c2.783,0 5.296,-0.359 7.537,-1.077c2.242,-0.718 4.183,-1.685 5.824,-2.901c1.641,-1.216 2.981,-2.578 4.022,-4.087c1.04,-1.509 1.765,-3.069 2.175,-4.681l0.088,-0.352l-7.648,0l-0.175,0.396c-0.411,0.938 -1.128,1.861 -2.154,2.769c-1.026,0.908 -2.329,1.655 -3.912,2.241c-1.582,0.587 -3.443,0.88 -5.582,0.88c-2.871,-0 -5.362,-0.638 -7.472,-1.912c-2.109,-1.275 -3.735,-3.106 -4.878,-5.494c-1.143,-2.388 -1.714,-5.267 -1.714,-8.637l-0,-3.033c-0,-3.545 0.586,-6.534 1.758,-8.966c1.172,-2.432 2.761,-4.271 4.769,-5.516c2.007,-1.245 4.285,-1.868 6.834,-1.868c2.549,0 4.806,0.593 6.769,1.78c1.963,1.187 3.501,2.982 4.615,5.384c1.113,2.403 1.67,5.465 1.67,9.186l-0,3.033l3.78,-5.582l-34.063,0l-0,6.109l37.975,0l-0,-2.988c-0,-4.718 -0.828,-8.857 -2.484,-12.417c-1.655,-3.56 -4.029,-6.336 -7.12,-8.329c-3.091,-1.992 -6.791,-2.989 -11.098,-2.989c-4.278,0 -8.014,1.041 -11.208,3.121c-3.194,2.08 -5.662,4.967 -7.406,8.659c-1.743,3.692 -2.615,7.984 -2.615,12.878l0,0.044c0,4.952 0.872,9.252 2.615,12.9c1.744,3.648 4.234,6.468 7.472,8.46c3.238,1.993 7.113,2.989 11.626,2.989Z" style="fill-rule:nonzero;"/><path d="M222.222,67.071l7.648,0l-0,-47.38l-7.648,-0l0,47.38Zm3.868,-56.522c1.465,-0 2.71,-0.521 3.736,-1.561c1.026,-1.04 1.538,-2.278 1.538,-3.714c0,-1.465 -0.512,-2.71 -1.538,-3.736c-1.026,-1.025 -2.271,-1.538 -3.736,-1.538c-1.436,0 -2.674,0.513 -3.714,1.538c-1.04,1.026 -1.56,2.271 -1.56,3.736c-0,1.436 0.52,2.674 1.56,3.714c1.04,1.04 2.278,1.561 3.714,1.561Z" style="fill-rule:nonzero;"/><path d="M246.835,67.511c1.583,-0 2.931,-0.565 4.044,-1.693c1.113,-1.128 1.67,-2.468 1.67,-4.021c0,-1.583 -0.557,-2.93 -1.67,-4.044c-1.113,-1.113 -2.461,-1.67 -4.044,-1.67c-1.553,-0 -2.893,0.557 -4.021,1.67c-1.128,1.114 -1.692,2.461 -1.692,4.044c-0,1.553 0.564,2.893 1.692,4.021c1.128,1.128 2.468,1.693 4.021,1.693Z" style="fill-rule:nonzero;"/><path d="M260.373,67.071l7.647,0l0,-66.192l-7.647,0l-0,66.192Zm29.843,0l9.626,0l-22.504,-28.085l-5.626,4.878l18.504,23.207Zm-23.163,-17.053l7.077,-6.813l1.846,-1.802l22.503,-21.712l-9.274,-0l-20.481,20.701l-2.022,0l0.351,9.626Z" style="fill-rule:nonzero;"/><path d="M316.632,67.906c2.139,0 4.102,-0.3 5.889,-0.901c1.787,-0.601 3.392,-1.487 4.813,-2.659c1.421,-1.172 2.63,-2.593 3.626,-4.263l0.703,-0l0,6.988l7.648,0l-0,-32.437c-0,-3.281 -0.696,-6.102 -2.088,-8.46c-1.392,-2.359 -3.428,-4.169 -6.109,-5.429c-2.681,-1.26 -5.956,-1.89 -9.824,-1.89c-3.369,0 -6.373,0.521 -9.01,1.561c-2.637,1.04 -4.783,2.49 -6.439,4.351c-1.655,1.861 -2.688,4.036 -3.098,6.527l-0.044,0.264l7.647,-0l0.044,-0.132c0.616,-1.846 1.832,-3.275 3.648,-4.286c1.817,-1.01 4.146,-1.516 6.989,-1.516c3.545,0 6.204,0.769 7.977,2.308c1.773,1.538 2.659,3.772 2.659,6.702l0,14.768c0,2.256 -0.579,4.278 -1.736,6.066c-1.157,1.787 -2.747,3.201 -4.769,4.241c-2.022,1.04 -4.336,1.56 -6.944,1.56c-2.755,0 -5.04,-0.666 -6.857,-1.999c-1.816,-1.334 -2.725,-3.202 -2.725,-5.604l0,-0.088c0,-2.344 0.828,-4.161 2.484,-5.45c1.655,-1.29 4.285,-2.037 7.889,-2.242l16.482,-1.055l-0,-6.109l-17.405,1.055c-5.509,0.322 -9.765,1.677 -12.768,4.065c-3.004,2.388 -4.505,5.692 -4.505,9.912l-0,0.087c-0,2.872 0.696,5.363 2.087,7.472c1.392,2.11 3.282,3.736 5.67,4.879c2.388,1.143 5.077,1.714 8.066,1.714Z" style="fill-rule:nonzero;"/><path d="M348.805,67.071l7.647,0l0,-29.36c0,-2.227 0.476,-4.256 1.429,-6.087c0.952,-1.832 2.256,-3.289 3.911,-4.374c1.656,-1.084 3.509,-1.626 5.56,-1.626c2.989,0 5.377,0.843 7.165,2.527c1.787,1.685 2.681,3.934 2.681,6.747l-0,32.173l7.647,0l0,-30.459c0,-2.022 0.454,-3.86 1.363,-5.516c0.908,-1.655 2.183,-2.981 3.824,-3.978c1.641,-0.996 3.56,-1.494 5.757,-1.494c3.341,0 5.824,0.872 7.45,2.615c1.627,1.744 2.44,4.359 2.44,7.846l-0,30.986l7.647,0l0,-32.744c0,-3.311 -0.586,-6.117 -1.758,-8.417c-1.172,-2.3 -2.879,-4.051 -5.12,-5.252c-2.242,-1.202 -4.974,-1.803 -8.197,-1.803c-2.169,0 -4.198,0.345 -6.088,1.033c-1.89,0.689 -3.552,1.656 -4.988,2.901c-1.436,1.246 -2.579,2.703 -3.429,4.373l-0.703,0c-0.732,-1.64 -1.714,-3.084 -2.945,-4.329c-1.23,-1.245 -2.695,-2.219 -4.395,-2.923c-1.699,-0.703 -3.618,-1.055 -5.758,-1.055c-3.105,0 -5.75,0.704 -7.933,2.11c-2.183,1.407 -3.802,3.385 -4.857,5.934l-0.703,-0l0,-7.208l-7.647,-0l-0,47.38Z" style="fill-rule:nonzero;"/><path d="M440.445,67.906c2.783,0 5.296,-0.359 7.538,-1.077c2.241,-0.718 4.182,-1.685 5.823,-2.901c1.641,-1.216 2.982,-2.578 4.022,-4.087c1.04,-1.509 1.765,-3.069 2.176,-4.681l0.087,-0.352l-7.647,0l-0.176,0.396c-0.41,0.938 -1.128,1.861 -2.154,2.769c-1.025,0.908 -2.329,1.655 -3.911,2.241c-1.583,0.587 -3.443,0.88 -5.582,0.88c-2.872,-0 -5.363,-0.638 -7.472,-1.912c-2.11,-1.275 -3.736,-3.106 -4.879,-5.494c-1.143,-2.388 -1.714,-5.267 -1.714,-8.637l-0,-3.033c-0,-3.545 0.586,-6.534 1.758,-8.966c1.172,-2.432 2.762,-4.271 4.769,-5.516c2.007,-1.245 4.285,-1.868 6.834,-1.868c2.55,0 4.806,0.593 6.769,1.78c1.963,1.187 3.502,2.982 4.615,5.384c1.113,2.403 1.67,5.465 1.67,9.186l0,3.033l3.78,-5.582l-34.063,0l0,6.109l37.975,0l-0,-2.988c-0,-4.718 -0.828,-8.857 -2.483,-12.417c-1.656,-3.56 -4.029,-6.336 -7.121,-8.329c-3.091,-1.992 -6.79,-2.989 -11.098,-2.989c-4.278,0 -8.014,1.041 -11.207,3.121c-3.194,2.08 -5.663,4.967 -7.406,8.659c-1.744,3.692 -2.616,7.984 -2.616,12.878l0,0.044c0,4.952 0.872,9.252 2.616,12.9c1.743,3.648 4.234,6.468 7.471,8.46c3.238,1.993 7.113,2.989 11.626,2.989Z" style="fill-rule:nonzero;"/><path d="M484.705,67.906c3.311,0 6.241,-0.74 8.79,-2.219c2.549,-1.48 4.542,-3.539 5.978,-6.176l0.703,0l-0,7.56l7.647,0l0,-66.192l-7.647,0l-0,26.283l-0.703,0c-1.29,-2.519 -3.26,-4.534 -5.912,-6.043c-2.652,-1.509 -5.604,-2.264 -8.856,-2.264c-4.015,0 -7.509,1.011 -10.483,3.033c-2.974,2.022 -5.282,4.864 -6.922,8.527c-1.641,3.663 -2.462,7.97 -2.462,12.922l0,0.088c0,4.922 0.821,9.222 2.462,12.9c1.64,3.677 3.955,6.527 6.944,8.548c2.989,2.022 6.476,3.033 10.461,3.033Zm1.758,-6.769c-2.872,0 -5.34,-0.71 -7.406,-2.131c-2.066,-1.421 -3.648,-3.458 -4.747,-6.11c-1.099,-2.651 -1.648,-5.809 -1.648,-9.471l-0,-0.088c-0,-3.692 0.549,-6.857 1.648,-9.494c1.099,-2.637 2.681,-4.666 4.747,-6.087c2.066,-1.421 4.534,-2.132 7.406,-2.132c2.871,0 5.347,0.718 7.428,2.154c2.08,1.436 3.677,3.472 4.79,6.109c1.114,2.637 1.671,5.787 1.671,9.45l-0,0.088c-0,3.633 -0.557,6.776 -1.671,9.427c-1.113,2.652 -2.71,4.696 -4.79,6.132c-2.081,1.436 -4.557,2.153 -7.428,2.153Z" style="fill-rule:nonzero;"/><path d="M530.063,67.906c2.139,0 4.102,-0.3 5.89,-0.901c1.787,-0.601 3.392,-1.487 4.813,-2.659c1.421,-1.172 2.629,-2.593 3.626,-4.263l0.703,-0l-0,6.988l7.648,0l-0,-32.437c-0,-3.281 -0.696,-6.102 -2.088,-8.46c-1.392,-2.359 -3.428,-4.169 -6.109,-5.429c-2.682,-1.26 -5.956,-1.89 -9.824,-1.89c-3.369,0 -6.373,0.521 -9.01,1.561c-2.637,1.04 -4.783,2.49 -6.439,4.351c-1.656,1.861 -2.688,4.036 -3.099,6.527l-0.044,0.264l7.648,-0l0.044,-0.132c0.615,-1.846 1.831,-3.275 3.648,-4.286c1.817,-1.01 4.146,-1.516 6.989,-1.516c3.545,0 6.204,0.769 7.977,2.308c1.773,1.538 2.659,3.772 2.659,6.702l-0,14.768c-0,2.256 -0.579,4.278 -1.736,6.066c-1.158,1.787 -2.747,3.201 -4.769,4.241c-2.022,1.04 -4.337,1.56 -6.944,1.56c-2.755,0 -5.04,-0.666 -6.857,-1.999c-1.817,-1.334 -2.725,-3.202 -2.725,-5.604l-0,-0.088c-0,-2.344 0.828,-4.161 2.483,-5.45c1.656,-1.29 4.286,-2.037 7.89,-2.242l16.482,-1.055l-0,-6.109l-17.405,1.055c-5.509,0.322 -9.765,1.677 -12.768,4.065c-3.004,2.388 -4.505,5.692 -4.505,9.912l-0,0.087c-0,2.872 0.695,5.363 2.087,7.472c1.392,2.11 3.282,3.736 5.67,4.879c2.388,1.143 5.077,1.714 8.065,1.714Z" style="fill-rule:nonzero;"/><path d="M598.453,77.356c5.714,-0 10.651,-0.718 14.812,-2.154l-0,-5.538c-1.377,0.645 -3.421,1.158 -6.132,1.539c-2.71,0.38 -5.574,0.571 -8.592,0.571c-6.271,-0 -11.721,-1.267 -16.35,-3.802c-4.63,-2.535 -8.219,-6.109 -10.769,-10.724c-2.549,-4.615 -3.824,-10.043 -3.824,-16.285l0,-0.087c0,-4.571 0.726,-8.762 2.176,-12.571c1.451,-3.809 3.502,-7.12 6.153,-9.933c2.652,-2.813 5.773,-4.989 9.362,-6.527c3.59,-1.538 7.538,-2.307 11.845,-2.307c5.861,-0 11.018,1.12 15.471,3.362c4.454,2.242 7.927,5.369 10.417,9.384c2.491,4.014 3.736,8.658 3.736,13.933l0,0.088c0,5.391 -0.82,9.698 -2.461,12.921c-1.641,3.224 -3.853,4.835 -6.637,4.835c-1.582,0 -2.806,-0.432 -3.67,-1.296c-0.864,-0.865 -1.297,-2.059 -1.297,-3.583l0,-25.799l-6.636,-0l-0,5.362l-0.704,-0c-0.849,-1.905 -2.197,-3.414 -4.043,-4.527c-1.846,-1.114 -3.927,-1.671 -6.241,-1.671c-2.989,0 -5.634,0.77 -7.934,2.308c-2.3,1.538 -4.102,3.67 -5.406,6.395c-1.304,2.725 -1.956,5.86 -1.956,9.406l0,0.088c0,3.721 0.638,6.973 1.912,9.757c1.275,2.784 3.062,4.959 5.362,6.527c2.3,1.568 4.974,2.351 8.022,2.351c2.578,0 4.82,-0.608 6.724,-1.824c1.905,-1.216 3.326,-2.937 4.264,-5.164l0.703,-0l0.044,0.264c0.351,2.139 1.414,3.86 3.186,5.164c1.773,1.304 3.919,1.956 6.439,1.956c3.37,-0 6.293,-0.96 8.769,-2.879c2.476,-1.919 4.388,-4.63 5.736,-8.131c1.347,-3.502 2.021,-7.626 2.021,-12.373l0,-0.087c0,-6.359 -1.494,-11.963 -4.483,-16.812c-2.989,-4.85 -7.127,-8.644 -12.416,-11.384c-5.289,-2.74 -11.406,-4.109 -18.35,-4.109c-5.392,-0 -10.307,0.879 -14.746,2.637c-4.439,1.758 -8.271,4.263 -11.494,7.516c-3.223,3.252 -5.706,7.12 -7.45,11.603c-1.743,4.483 -2.615,9.435 -2.615,14.856l0,0.088c0,5.596 0.865,10.651 2.593,15.163c1.729,4.513 4.205,8.373 7.428,11.582c3.223,3.208 7.121,5.662 11.692,7.362c4.571,1.699 9.684,2.549 15.339,2.549Zm-2.374,-24.174c-1.904,0 -3.552,-0.491 -4.944,-1.472c-1.392,-0.982 -2.461,-2.396 -3.209,-4.242c-0.747,-1.846 -1.12,-4.029 -1.12,-6.549l-0,-0.087c-0,-2.55 0.373,-4.74 1.12,-6.571c0.748,-1.832 1.817,-3.231 3.209,-4.198c1.392,-0.967 3.069,-1.45 5.032,-1.45c2.989,-0 5.37,1.099 7.143,3.296c1.772,2.198 2.659,5.172 2.659,8.923l-0,0.087c-0,3.722 -0.894,6.696 -2.681,8.923c-1.788,2.227 -4.19,3.34 -7.209,3.34Z" style="fill-rule:nonzero;"/><path d="M656.821,67.906c3.487,0 6.41,-0.688 8.769,-2.066c2.359,-1.377 4.124,-3.325 5.296,-5.845l0.703,-0l0,7.076l7.648,0l-0,-47.38l-7.648,-0l0,28.041c0,2.754 -0.483,5.135 -1.45,7.142c-0.967,2.007 -2.403,3.553 -4.307,4.637c-1.905,1.084 -4.249,1.626 -7.033,1.626c-3.78,0 -6.497,-1.04 -8.153,-3.12c-1.655,-2.081 -2.483,-5.245 -2.483,-9.494l-0,-28.832l-7.648,-0l0,30.678c0,3.721 0.608,6.893 1.824,9.516c1.216,2.622 3.04,4.615 5.472,5.977c2.432,1.363 5.436,2.044 9.01,2.044Z" style="fill-rule:nonzero;"/><path d="M707.718,67.906c2.784,0 5.296,-0.359 7.538,-1.077c2.241,-0.718 4.183,-1.685 5.823,-2.901c1.641,-1.216 2.982,-2.578 4.022,-4.087c1.04,-1.509 1.766,-3.069 2.176,-4.681l0.088,-0.352l-7.648,0l-0.176,0.396c-0.41,0.938 -1.128,1.861 -2.154,2.769c-1.025,0.908 -2.329,1.655 -3.911,2.241c-1.583,0.587 -3.443,0.88 -5.582,0.88c-2.872,-0 -5.362,-0.638 -7.472,-1.912c-2.11,-1.275 -3.736,-3.106 -4.879,-5.494c-1.143,-2.388 -1.714,-5.267 -1.714,-8.637l0,-3.033c0,-3.545 0.586,-6.534 1.758,-8.966c1.172,-2.432 2.762,-4.271 4.769,-5.516c2.007,-1.245 4.285,-1.868 6.835,-1.868c2.549,0 4.805,0.593 6.768,1.78c1.963,1.187 3.502,2.982 4.615,5.384c1.114,2.403 1.67,5.465 1.67,9.186l0,3.033l3.78,-5.582l-34.063,0l0,6.109l37.975,0l0,-2.988c0,-4.718 -0.828,-8.857 -2.483,-12.417c-1.656,-3.56 -4.029,-6.336 -7.121,-8.329c-3.091,-1.992 -6.79,-2.989 -11.097,-2.989c-4.278,0 -8.014,1.041 -11.208,3.121c-3.194,2.08 -5.663,4.967 -7.406,8.659c-1.744,3.692 -2.615,7.984 -2.615,12.878l-0,0.044c-0,4.952 0.871,9.252 2.615,12.9c1.743,3.648 4.234,6.468 7.472,8.46c3.237,1.993 7.113,2.989 11.625,2.989Z" style="fill-rule:nonzero;"/><path d="M753.868,67.906c3.809,0 7.061,-0.63 9.757,-1.89c2.696,-1.26 4.864,-2.996 6.505,-5.208c1.641,-2.212 2.784,-4.74 3.428,-7.582l0.088,-0.483l-7.56,0.044l-0.087,0.263c-0.879,2.637 -2.33,4.645 -4.352,6.022c-2.021,1.377 -4.629,2.065 -7.823,2.065c-2.813,0 -5.26,-0.732 -7.34,-2.197c-2.081,-1.465 -3.692,-3.538 -4.835,-6.219c-1.143,-2.681 -1.714,-5.839 -1.714,-9.472l-0,-0.088c-0,-3.575 0.564,-6.673 1.692,-9.296c1.128,-2.622 2.732,-4.651 4.813,-6.087c2.08,-1.436 4.542,-2.154 7.384,-2.154c3.399,0 6.138,0.821 8.219,2.461c2.08,1.641 3.414,3.634 4,5.978l0.043,0.132l7.604,-0l-0.044,-0.264c-0.469,-2.813 -1.538,-5.355 -3.208,-7.626c-1.67,-2.27 -3.897,-4.08 -6.681,-5.428c-2.784,-1.348 -6.095,-2.022 -9.933,-2.022c-4.425,0 -8.263,1.004 -11.516,3.011c-3.252,2.007 -5.765,4.828 -7.537,8.461c-1.773,3.633 -2.66,7.911 -2.66,12.834l0,0.088c0,5.01 0.894,9.362 2.682,13.054c1.787,3.692 4.307,6.549 7.559,8.57c3.253,2.022 7.091,3.033 11.516,3.033Z" style="fill-rule:nonzero;"/><path d="M785.821,67.511c1.582,-0 2.93,-0.565 4.044,-1.693c1.113,-1.128 1.67,-2.468 1.67,-4.021c-0,-1.583 -0.557,-2.93 -1.67,-4.044c-1.114,-1.113 -2.462,-1.67 -4.044,-1.67c-1.553,-0 -2.893,0.557 -4.022,1.67c-1.128,1.114 -1.692,2.461 -1.692,4.044c0,1.553 0.564,2.893 1.692,4.021c1.129,1.128 2.469,1.693 4.022,1.693Z" style="fill-rule:nonzero;"/><path d="M811.929,67.906c2.139,0 4.102,-0.3 5.889,-0.901c1.788,-0.601 3.392,-1.487 4.813,-2.659c1.421,-1.172 2.63,-2.593 3.626,-4.263l0.703,-0l0,6.988l7.648,0l-0,-32.437c-0,-3.281 -0.696,-6.102 -2.088,-8.46c-1.392,-2.359 -3.428,-4.169 -6.109,-5.429c-2.681,-1.26 -5.956,-1.89 -9.823,-1.89c-3.37,0 -6.374,0.521 -9.011,1.561c-2.637,1.04 -4.783,2.49 -6.439,4.351c-1.655,1.861 -2.688,4.036 -3.098,6.527l-0.044,0.264l7.647,-0l0.044,-0.132c0.616,-1.846 1.832,-3.275 3.648,-4.286c1.817,-1.01 4.147,-1.516 6.989,-1.516c3.545,0 6.204,0.769 7.977,2.308c1.773,1.538 2.659,3.772 2.659,6.702l0,14.768c0,2.256 -0.578,4.278 -1.736,6.066c-1.157,1.787 -2.747,3.201 -4.769,4.241c-2.021,1.04 -4.336,1.56 -6.944,1.56c-2.754,0 -5.04,-0.666 -6.857,-1.999c-1.816,-1.334 -2.725,-3.202 -2.725,-5.604l0,-0.088c0,-2.344 0.828,-4.161 2.484,-5.45c1.655,-1.29 4.285,-2.037 7.889,-2.242l16.482,-1.055l0,-6.109l-17.405,1.055c-5.509,0.322 -9.765,1.677 -12.768,4.065c-3.003,2.388 -4.505,5.692 -4.505,9.912l-0,0.087c-0,2.872 0.696,5.363 2.088,7.472c1.391,2.11 3.281,3.736 5.669,4.879c2.388,1.143 5.077,1.714 8.066,1.714Z" style="fill-rule:nonzero;"/><path d="M863.485,67.906c3.809,0 7.061,-0.63 9.757,-1.89c2.696,-1.26 4.864,-2.996 6.505,-5.208c1.641,-2.212 2.783,-4.74 3.428,-7.582l0.088,-0.483l-7.56,0.044l-0.088,0.263c-0.879,2.637 -2.329,4.645 -4.351,6.022c-2.022,1.377 -4.63,2.065 -7.823,2.065c-2.813,0 -5.26,-0.732 -7.34,-2.197c-2.081,-1.465 -3.692,-3.538 -4.835,-6.219c-1.143,-2.681 -1.714,-5.839 -1.714,-9.472l-0,-0.088c-0,-3.575 0.564,-6.673 1.692,-9.296c1.128,-2.622 2.732,-4.651 4.813,-6.087c2.08,-1.436 4.541,-2.154 7.384,-2.154c3.399,0 6.138,0.821 8.219,2.461c2.08,1.641 3.413,3.634 3.999,5.978l0.044,0.132l7.604,-0l-0.044,-0.264c-0.469,-2.813 -1.538,-5.355 -3.208,-7.626c-1.671,-2.27 -3.898,-4.08 -6.681,-5.428c-2.784,-1.348 -6.095,-2.022 -9.933,-2.022c-4.425,0 -8.263,1.004 -11.516,3.011c-3.252,2.007 -5.765,4.828 -7.538,8.461c-1.772,3.633 -2.659,7.911 -2.659,12.834l0,0.088c0,5.01 0.894,9.362 2.681,13.054c1.788,3.692 4.308,6.549 7.56,8.57c3.253,2.022 7.091,3.033 11.516,3.033Z" style="fill-rule:nonzero;"/><path d="M895.438,67.511c1.582,-0 2.93,-0.565 4.043,-1.693c1.114,-1.128 1.671,-2.468 1.671,-4.021c-0,-1.583 -0.557,-2.93 -1.671,-4.044c-1.113,-1.113 -2.461,-1.67 -4.043,-1.67c-1.553,-0 -2.894,0.557 -4.022,1.67c-1.128,1.114 -1.692,2.461 -1.692,4.044c-0,1.553 0.564,2.893 1.692,4.021c1.128,1.128 2.469,1.693 4.022,1.693Z" style="fill-rule:nonzero;"/><path d="M901.767,83.333c4.981,0 8.651,-1.106 11.01,-3.318c2.359,-2.212 3.538,-5.75 3.538,-10.615l0,-49.709l-7.648,-0l0,49.841c0,2.608 -0.534,4.432 -1.604,5.472c-1.069,1.041 -2.893,1.561 -5.472,1.561l-1.143,-0l0,6.768l1.319,0Zm10.724,-72.784c1.465,-0 2.711,-0.521 3.736,-1.561c1.026,-1.04 1.538,-2.278 1.538,-3.714c0,-1.465 -0.512,-2.71 -1.538,-3.736c-1.025,-1.025 -2.271,-1.538 -3.736,-1.538c-1.436,0 -2.674,0.513 -3.714,1.538c-1.04,1.026 -1.56,2.271 -1.56,3.736c-0,1.436 0.52,2.674 1.56,3.714c1.04,1.04 2.278,1.561 3.714,1.561Z" style="fill-rule:nonzero;"/><path d="M926.995,82.894l7.648,-0l0,-23.295l0.703,0c0.879,1.7 2.059,3.165 3.538,4.395c1.48,1.231 3.18,2.191 5.099,2.879c1.919,0.689 3.963,1.033 6.131,1.033c4.015,0 7.509,-1.011 10.483,-3.033c2.974,-2.021 5.281,-4.864 6.922,-8.526c1.641,-3.663 2.462,-7.97 2.462,-12.922l-0,-0.088c-0,-4.923 -0.821,-9.215 -2.462,-12.878c-1.641,-3.663 -3.948,-6.512 -6.922,-8.549c-2.974,-2.036 -6.468,-3.055 -10.483,-3.055c-2.197,0 -4.234,0.337 -6.109,1.011c-1.875,0.674 -3.546,1.634 -5.011,2.879c-1.465,1.246 -2.681,2.747 -3.648,4.505l-0.703,0l0,-7.559l-7.648,-0l0,63.203Zm21.361,-21.757c-2.871,0 -5.347,-0.717 -7.428,-2.153c-2.08,-1.436 -3.677,-3.48 -4.791,-6.132c-1.113,-2.651 -1.67,-5.794 -1.67,-9.427l0,-0.088c0,-3.663 0.557,-6.813 1.67,-9.45c1.114,-2.637 2.711,-4.673 4.791,-6.109c2.081,-1.436 4.557,-2.154 7.428,-2.154c2.901,0 5.377,0.711 7.428,2.132c2.051,1.421 3.626,3.45 4.725,6.087c1.099,2.637 1.648,5.802 1.648,9.494l0,0.088c0,3.662 -0.549,6.82 -1.648,9.471c-1.099,2.652 -2.674,4.689 -4.725,6.11c-2.051,1.421 -4.527,2.131 -7.428,2.131Z" style="fill-rule:nonzero;"/></g></g></svg>