<?xml version="1.0" encoding="UTF-8" standalone="no"?><!DOCTYPE svg PUBLIC "-//W3C//DTD SVG 1.1//EN" "http://www.w3.org/Graphics/SVG/1.1/DTD/svg11.dtd"><svg width="100%" height="100%" viewBox="0 0 25 20" version="1.1" xmlns="http://www.w3.org/2000/svg" xmlns:xlink="http://www.w3.org/1999/xlink" xml:space="preserve" xmlns:serif="http://www.serif.com/" style="fill-rule:evenodd;clip-rule:evenodd;stroke-linejoin:round;stroke-miterlimit:2;"><rect id="アートボード8" x="0" y="0" width="25" height="20" style="fill:none;"/><path d="M1.129,1.836c-0.705,0.862 -1.129,1.964 -1.129,3.164l0,10c0,2.76 2.24,5 5,5l15,0c2.76,0 5,-2.24 5,-5l0,-10c0,-1.2 -0.424,-2.302 -1.129,-3.164l-11.017,11.018c-0.196,0.195 -0.512,0.195 -0.708,-0l-11.017,-11.018Zm0.707,-0.707l10.664,10.664l10.664,-10.664c-0.862,-0.705 -1.964,-1.129 -3.164,-1.129l-15,0c-1.2,0 -2.302,0.424 -3.164,1.129Z"/></svg>