<?xml version="1.0" encoding="UTF-8" standalone="no"?><!DOCTYPE svg PUBLIC "-//W3C//DTD SVG 1.1//EN" "http://www.w3.org/Graphics/SVG/1.1/DTD/svg11.dtd"><svg width="100%" height="100%" viewBox="0 0 160 30" version="1.1" xmlns="http://www.w3.org/2000/svg" xmlns:xlink="http://www.w3.org/1999/xlink" xml:space="preserve" xmlns:serif="http://www.serif.com/" style="fill-rule:evenodd;clip-rule:evenodd;stroke-linejoin:round;stroke-miterlimit:2;"><rect id="アートボード1" x="0" y="0" width="160" height="30" style="fill:none;"/><clipPath id="_clip1"><rect x="0" y="0" width="160" height="30"/></clipPath><g clip-path="url(#_clip1)"><g><path d="M2.372,8.983l0,17.395l-2.372,0l-0,-23.233l3.796,-0l2.491,15.132l0.237,-0l2.491,-15.132l3.796,-0l-0,23.233l-2.373,0l0,-17.395l-0.237,0l-2.847,17.395l-1.898,0l-2.846,-17.395l-0.238,0Z" style="fill-rule:nonzero;"/><path d="M20.165,11.843c1.66,1.429 3.321,2.621 4.982,3.574c1.819,1.033 2.728,2.542 2.728,4.528c-0,1.985 -0.593,3.574 -1.779,4.765c-1.107,1.112 -2.649,1.668 -4.626,1.668c-1.898,0 -3.361,-0.516 -4.389,-1.548c-1.265,-1.271 -1.898,-2.781 -1.898,-4.528l-0,-1.191l2.728,-0l0,1.072c0,1.271 0.316,2.224 0.949,2.859c0.633,0.636 1.423,0.954 2.372,0.954c1.266,-0 2.215,-0.318 2.847,-0.954c0.712,-0.715 1.068,-1.628 1.068,-2.74c-0,-1.191 -0.554,-2.145 -1.661,-2.86c-1.977,-1.27 -3.835,-2.621 -5.575,-4.05c-1.265,-1.033 -1.937,-2.423 -2.016,-4.171c-0.079,-1.747 0.514,-3.217 1.779,-4.408c1.186,-1.112 2.491,-1.668 3.914,-1.668c1.74,-0 3.084,0.477 4.033,1.43c1.186,1.191 1.74,2.859 1.661,5.004l-2.728,-0c0.158,-1.35 -0.158,-2.423 -0.949,-3.217c-0.554,-0.556 -1.226,-0.834 -2.017,-0.834c-0.791,-0 -1.463,0.278 -2.016,0.834c-0.712,0.715 -1.068,1.549 -1.068,2.502c0,1.033 0.554,2.025 1.661,2.979Z" style="fill-rule:nonzero;"/><path d="M68.323,8.626l0,17.038l-2.728,-0l0,-1.311l-16.488,-0l0,-2.621l16.488,-0l0,-10.485l-16.488,-0l0,-2.621l19.216,-0Zm3.796,-2.145c-1.344,-1.747 -2.57,-3.137 -3.677,-4.17l1.542,-1.192c1.265,1.192 2.491,2.582 3.677,4.171l-1.542,1.191Zm-3.321,1.192c-1.186,-1.589 -2.373,-3.019 -3.559,-4.29l1.542,-1.191c1.265,1.271 2.452,2.7 3.559,4.289l-1.542,1.192Z" style="fill-rule:nonzero;"/><path d="M81.49,24.71c8.619,-1.906 15.104,-6.394 19.453,-13.463l2.135,2.145c-4.033,6.513 -10.28,11.12 -18.742,13.82c-0.237,0.954 -0.632,0.993 -1.186,0.12l-1.66,-2.622Zm-0.831,-14.416c1.977,1.032 3.994,2.303 6.05,3.812l-1.898,2.502c-2.372,-1.747 -4.349,-3.018 -5.931,-3.812l1.779,-2.502Zm3.322,-7.03c2.135,1.192 4.151,2.462 6.049,3.813l-1.661,2.502c-2.135,-1.509 -4.112,-2.78 -5.93,-3.813l1.542,-2.502Z" style="fill-rule:nonzero;"/><path d="M130.004,12.081c-0.554,5.163 -1.977,8.896 -4.27,11.2c-2.294,2.303 -5.298,4.13 -9.015,5.48l-1.542,-2.263c3.637,-1.192 6.484,-2.82 8.54,-4.885c2.214,-2.224 3.48,-5.997 3.796,-11.319l2.491,0.834c0.712,0.238 0.712,0.556 -0,0.953Zm-10.082,4.289c-0.949,-2.144 -1.898,-3.932 -2.847,-5.361l2.253,-1.192c1.187,1.509 2.215,3.297 3.084,5.362l-2.49,1.191Zm-6.05,1.787c-0.949,-2.224 -1.937,-4.09 -2.965,-5.599l2.372,-1.192c1.107,1.509 2.096,3.336 2.965,5.481l-2.372,1.31Z" style="fill-rule:nonzero;"/><path d="M159.302,10.294c-1.502,8.658 -6.445,14.853 -14.827,18.587l-2.135,-2.264c7.75,-3.177 12.415,-8.658 13.997,-16.442l-9.49,-0c-1.818,3.018 -3.716,5.441 -5.693,7.267l-2.372,-1.548c4.112,-3.734 6.761,-8.102 7.947,-13.106l2.728,0.953c0.475,0.238 0.395,0.476 -0.237,0.715c-0.316,1.032 -0.751,2.065 -1.305,3.097l8.54,0l1.068,-0.595l2.135,2.144c0.554,0.556 0.435,0.953 -0.356,1.192Z" style="fill-rule:nonzero;"/></g></g></svg>