<?xml version="1.0" encoding="UTF-8" standalone="no"?><!DOCTYPE svg PUBLIC "-//W3C//DTD SVG 1.1//EN" "http://www.w3.org/Graphics/SVG/1.1/DTD/svg11.dtd"><svg width="100%" height="100%" viewBox="0 0 161 50" version="1.1" xmlns="http://www.w3.org/2000/svg" xmlns:xlink="http://www.w3.org/1999/xlink" xml:space="preserve" xmlns:serif="http://www.serif.com/" style="fill-rule:evenodd;clip-rule:evenodd;stroke-linejoin:round;stroke-miterlimit:2;"><rect id="アートボード1" x="0" y="0" width="160.714" height="50" style="fill:none;"/><g><path d="M22.575,20.977c0.339,-0.375 1.278,-1.503 1.73,-2.067c0.526,-0.639 0.601,-0.677 0.902,-1.053l-1.88,-1.616c-0.677,0.112 -1.692,0.15 -3.609,0.15l-5.677,-0c0.865,-1.015 0.865,-1.015 1.128,-1.316l-4.774,-0.789c-0.564,1.052 -1.654,2.406 -3.045,3.759c-2.143,2.105 -4.399,3.76 -7.068,5.15c0.752,1.016 1.316,2.106 1.767,3.534c1.391,-0.827 1.88,-1.127 2.782,-1.767l-0,3.722c-0,1.316 -0.038,1.918 -0.151,2.933c1.128,-0.076 1.993,-0.113 3.459,-0.113l7.293,-0l0,1.466l-8.947,-0c-1.391,-0 -2.406,-0.038 -3.459,-0.113c0.076,0.639 0.113,2.143 0.113,3.346l0,5.602c0,1.654 -0.037,2.857 -0.188,4.248l4.135,-0l0,-1.617l8.346,0l0,1.767c0,2.97 1.015,3.383 8.647,3.383c5.827,0 8.383,-0.225 9.474,-0.864c1.391,-0.79 1.955,-2.519 2.255,-6.73c-1.579,-0.3 -2.782,-0.676 -3.571,-1.052l-0,-4.624c-0,-1.617 0.037,-2.519 0.15,-3.496c-1.203,0.112 -2.255,0.15 -3.684,0.15l-9.286,-0l0,-1.466l8.121,-0c1.466,-0 2.406,0.037 3.458,0.113c-0.113,-0.94 -0.15,-1.467 -0.15,-2.933l-0,-4.887c-0,-1.466 0.037,-2.03 0.15,-2.97c-1.09,0.113 -1.879,0.15 -3.684,0.15l-4.737,0Zm-12.97,0c0.827,-0.789 0.94,-0.864 1.692,-1.616l8.045,-0c-0.526,0.714 -0.677,0.902 -1.278,1.616l-8.459,0Zm5.827,7.97l-6.767,0l0,-1.466l6.767,0l0,1.466Zm0,-3.872l-6.767,0l0,-1.428l6.767,-0l0,1.428Zm3.985,-1.428l7.481,-0l0,1.428l-7.481,0l0,-1.428Zm0,3.834l7.481,0l0,1.466l-7.481,0l0,-1.466Zm0,16.955l9.737,0c1.166,0 1.729,0 2.594,0.038c-0.263,1.015 -0.451,1.315 -1.053,1.579c-0.751,0.3 -2.443,0.451 -5.413,0.451c-3.421,-0 -4.662,-0.075 -5.263,-0.263c-0.489,-0.113 -0.602,-0.376 -0.602,-1.128l0,-0.677Zm0,-2.895l0,-1.541l8.872,-0l0,1.541l-8.872,0Zm0,-4.248l0,-1.541l8.872,-0l0,1.541l-8.872,0Zm-3.985,-1.541l0,1.541l-8.383,0l-0,-1.541l8.383,-0Zm0,4.248l0,1.541l-8.383,0l-0,-1.541l8.383,-0Z" style="fill-rule:nonzero;"/><path d="M71.222,49.323c-0.151,-1.278 -0.226,-2.819 -0.226,-4.737l0,-23.646c0,-1.579 0.038,-2.707 0.188,-3.985c-1.428,0.15 -2.631,0.188 -4.323,0.188l-22.594,-0c-1.729,-0 -2.932,-0.038 -4.361,-0.188c0.15,1.316 0.188,2.519 0.188,4.022l-0,23.609c-0,2.031 -0.075,3.384 -0.226,4.737l4.286,0l0,-2.067l22.782,-0l0,2.067l4.286,0Zm-27.068,-28.383l9.098,-0l-0,9.098l-9.098,-0l0,-9.098Zm13.158,-0l9.586,-0l0,9.098l-9.586,-0l0,-9.098Zm-13.158,12.819l9.098,0l-0,9.775l-9.098,-0l0,-9.775Zm13.158,0l9.586,0l0,9.775l-9.586,-0l0,-9.775Z" style="fill-rule:nonzero;"/><path d="M105.733,27.669l-7.18,0c-1.504,0 -1.955,-0.037 -2.707,-0.15l-0,3.571c1.09,-0.113 1.654,-0.15 2.782,-0.15l7.105,-0l0,1.88l-6.203,-0c-1.203,-0 -2.03,-0.038 -2.744,-0.151l-0,3.421c0.639,-0.075 1.052,-0.113 2.218,-0.15l-2.331,1.992c1.429,0.94 2.481,1.842 4.21,3.685c-2.594,1.24 -5.037,2.105 -6.954,2.518l1.766,3.722c0.376,-0.188 0.79,-0.413 1.203,-0.564c1.692,-0.714 1.692,-0.714 3.685,-1.691c0.376,1.24 0.601,2.33 0.789,3.909c2.218,0.075 2.632,0.075 3.384,0.075c3.684,0 4.774,-0.827 4.774,-3.684l0,-3.722c0,-0.413 -0.038,-1.052 -0.038,-1.24c-0.037,-1.015 -0.037,-1.015 -0.075,-1.617c2.481,4.361 5.602,7.218 11.278,10.226c1.091,-1.729 1.617,-2.481 2.557,-3.534c-3.233,-1.429 -4.925,-2.406 -6.993,-4.023c1.955,-1.315 3.384,-2.481 5.113,-4.172l-2.519,-1.843c0.301,0.038 0.414,0.038 0.79,0.038c-0.113,-0.752 -0.113,-1.128 -0.113,-2.669l0,-2.406l0.677,-0c1.09,-0 1.767,0.037 2.669,0.188l-0,-3.609c-0.714,0.113 -1.316,0.15 -2.632,0.15l-0.714,0l0,-2.143c0,-1.278 0,-1.955 0.113,-2.782c-0.94,0.076 -1.654,0.113 -3.12,0.113l-6.993,0l0,-1.767l9.812,0c1.316,0 2.181,0.038 3.308,0.151l0,-3.835c-1.127,0.15 -2.631,0.226 -4.398,0.226l-9.624,-0l-0,-0.527c-0,-1.09 0.037,-1.616 0.188,-2.255l-4.474,-0c0.15,0.676 0.188,1.203 0.188,2.18l0,0.602l-8.759,-0c-2.406,-0 -3.609,-0.038 -4.812,-0.188c0.188,1.278 0.225,2.142 0.225,4.736c0,7.181 -0.301,11.73 -1.015,16.542c-0.526,3.458 -1.09,5.413 -2.255,7.631c1.466,1.241 1.879,1.692 3.195,3.384c1.391,-2.481 2.143,-4.587 2.782,-8.045c0.94,-4.925 1.165,-9.211 1.203,-20.602l10.639,0l0,1.767l-6.015,0c-1.316,0 -1.992,-0.037 -2.707,-0.15l0,3.421c0.827,-0.113 1.805,-0.151 2.745,-0.151l5.977,0l0,1.692Zm0,8.271l0,3.195c-3.383,1.805 -3.383,1.805 -4.624,2.406l2.256,-2.368c-1.279,-1.391 -2.444,-2.368 -3.797,-3.233l6.165,-0Zm5.15,-0l6.955,-0c-1.203,1.428 -2.143,2.255 -4.21,3.646c-1.241,-1.315 -1.805,-2.105 -2.745,-3.646Zm-1.353,-8.271l0,-1.692l6.203,0l0,1.692l-6.203,0Zm0,3.271l6.203,-0l0,1.88l-6.203,-0l0,-1.88Zm-3.797,13.872c0,0.79 -0.188,0.902 -1.428,0.902c-1.016,0 -2.407,-0.112 -3.309,-0.3c1.767,-0.865 2.782,-1.429 4.737,-2.594l0,1.992Z" style="fill-rule:nonzero;"/><path d="M141.109,20.113l0,12.782l-10.15,-0c-2.256,-0 -3.346,-0.075 -4.624,-0.263l-0,4.398c1.466,-0.188 2.932,-0.263 4.736,-0.263l10.038,-0l0,8.383c0,1.73 -0.075,3.158 -0.263,4.85l4.774,-0c-0.188,-1.692 -0.263,-3.308 -0.263,-4.85l0,-8.383l10.338,-0c1.993,-0 3.459,0.075 4.737,0.263l0,-4.398c-1.278,0.188 -2.406,0.263 -4.473,0.263l-10.602,-0l0,-12.782l8.91,-0c1.955,-0 3.195,0.075 4.586,0.225l0,-4.285c-1.353,0.15 -2.556,0.225 -4.699,0.225l-21.428,0c-2.106,0 -3.309,-0.075 -4.7,-0.225l0,4.285c1.429,-0.15 2.669,-0.225 4.624,-0.225l8.459,-0Zm-11.316,2.782c2.03,3.007 3.158,5.263 4.436,9.06l3.873,-1.955c-1.316,-3.421 -2.519,-5.639 -4.662,-8.835l-3.647,1.73Zm23.346,-1.692c-1.391,3.835 -2.594,6.053 -5.037,9.098l3.721,1.879c2.331,-3.195 3.572,-5.413 5.188,-9.21l-3.872,-1.767Z" style="fill-rule:nonzero;"/></g><g><path d="M20.278,0.347l0,0.227c0,0.395 -0.095,1.125 -0.311,2.418c-0.658,0.095 -2.106,0.239 -2.548,0.239l0.143,1.412c0.395,-0.108 1.532,-0.311 2.142,-0.383c-0.479,1.711 -0.646,2.214 -1.161,3.386c-0.406,0.91 -0.885,1.771 -1.244,2.25l1.388,0.766c0.06,-0.12 0.06,-0.132 0.096,-0.204c0.119,-0.239 0.119,-0.239 0.179,-0.359c0.694,-1.4 1.017,-2.165 1.436,-3.362c0.263,-0.778 0.371,-1.137 0.73,-2.597c0.275,-0.024 0.455,-0.036 0.694,-0.036c0.945,0 1.221,0.323 1.221,1.424c-0,1.017 -0.12,2.106 -0.311,2.729c-0.18,0.586 -0.371,0.813 -0.718,0.813c-0.419,0 -1.101,-0.179 -1.747,-0.466c0.095,0.466 0.119,0.706 0.119,1.017c0,0.119 -0.012,0.287 -0.024,0.526c0.802,0.252 1.293,0.347 1.843,0.347c0.634,0 0.993,-0.143 1.328,-0.538c0.575,-0.658 0.922,-2.298 0.922,-4.356c-0,-1.089 -0.156,-1.663 -0.563,-2.118c-0.395,-0.419 -0.981,-0.634 -1.771,-0.634c-0.227,-0 -0.395,0.012 -0.742,0.036c0.036,-0.156 0.036,-0.18 0.084,-0.443c0.168,-0.897 0.168,-0.897 0.204,-1.149c0.035,-0.191 0.047,-0.251 0.071,-0.407c0.024,-0.131 0.06,-0.263 0.096,-0.37l-1.556,-0.168Zm4.284,2.298c0.563,0.61 0.946,1.16 1.376,2.046c0.455,0.897 0.73,1.687 0.958,2.716l1.364,-0.694c-0.515,-1.843 -1.269,-3.267 -2.465,-4.667l-1.233,0.599Z" style="fill-rule:nonzero;"/><path d="M30.904,1.041c0.072,0.18 0.096,0.251 0.12,0.407c0.132,0.67 0.347,1.711 0.407,1.891c-1.245,0.933 -1.915,2.201 -1.915,3.673c0,1.616 0.826,2.693 2.058,2.693c0.407,-0 0.742,-0.096 1.113,-0.324c0.479,-0.275 0.994,-0.765 1.424,-1.316c0.874,-1.137 1.7,-2.824 2.178,-4.463c0.491,0.143 0.754,0.263 1.077,0.514c0.598,0.467 0.874,1.065 0.874,1.855c-0,0.527 -0.144,1.029 -0.407,1.472c-0.323,0.514 -0.862,0.933 -1.675,1.28c-0.659,0.287 -1.125,0.395 -1.951,0.467c0.455,0.598 0.562,0.802 0.742,1.4c0.921,-0.191 1.376,-0.323 1.95,-0.574c1.783,-0.754 2.8,-2.178 2.8,-3.937c0,-1.245 -0.502,-2.262 -1.459,-2.968c-0.467,-0.347 -0.898,-0.538 -1.604,-0.718c0.048,-0.167 0.204,-0.754 0.371,-1.4c0.024,-0.108 0.048,-0.191 0.12,-0.335l-1.508,-0.299c-0.012,0.395 -0.096,0.838 -0.347,1.855l-0.323,-0c-0.79,-0 -1.496,0.143 -2.31,0.478c-0.143,-0.61 -0.275,-1.471 -0.287,-1.926l-1.448,0.275Zm0.886,3.722c0.239,0.993 0.431,1.543 0.981,2.752c-0.407,0.514 -0.79,0.778 -1.125,0.778c-0.478,-0 -0.813,-0.539 -0.813,-1.317c-0,-0.837 0.287,-1.507 0.957,-2.213Zm1.879,1.579c-0.012,-0.06 -0.024,-0.084 -0.06,-0.179c-0.371,-0.946 -0.527,-1.436 -0.718,-2.262c0.634,-0.347 1.232,-0.479 2.058,-0.479c-0.395,1.197 -0.718,1.951 -1.197,2.764c-0.036,0.06 -0.036,0.072 -0.071,0.156l-0.012,0Z" style="fill-rule:nonzero;"/><path d="M41.602,3.721c0.108,-0.012 0.168,-0.012 0.227,-0.012c0.096,0 0.312,0 0.479,0.012l0.85,0l0.263,0.012l0.12,0c-0.407,2.142 -1.365,5.026 -2.142,6.414l1.507,0.587c1.041,-2.741 1.64,-4.739 2.083,-7.048c0.287,-0 1.16,-0.108 1.962,-0.252l0.275,-0.048c0.012,0 0.048,0 0.108,-0.012l-0.06,-1.376c-0.562,0.168 -1.268,0.288 -2.046,0.359c0.036,-0.215 0.06,-0.311 0.072,-0.371c0.036,-0.215 0.059,-0.383 0.083,-0.526c0.108,-0.61 0.12,-0.67 0.192,-0.933l-1.58,-0.144c0.012,0.096 0.012,0.167 0.012,0.215c0,0.335 -0.119,1.257 -0.227,1.831c-0.275,0.012 -0.407,0.012 -0.551,0.012c-0.694,0 -1.172,-0.036 -1.603,-0.108l-0.024,1.388Zm6.701,-2.596c0.527,0.574 0.862,1.053 1.257,1.783l0.837,-0.443c-0.407,-0.742 -0.73,-1.197 -1.256,-1.759l-0.838,0.419Zm2.788,2.848c-0.55,-0.012 -0.825,-0.012 -1.184,-0.012c-1.293,-0 -1.879,0.06 -3.566,0.383l0.107,1.328c1.185,-0.275 1.975,-0.359 3.159,-0.359c0.599,-0 0.934,0.024 1.508,0.084l-0.024,-1.424Zm-4.714,2.513c-0.659,0.909 -0.886,1.448 -0.886,2.082c0,0.598 0.335,1.172 0.85,1.472c0.574,0.323 1.34,0.478 2.405,0.478c0.706,0 1.232,-0.048 2.226,-0.203c0.311,-0.048 0.371,-0.06 0.586,-0.084l-0.108,-1.46c-0.694,0.251 -1.843,0.443 -2.716,0.443c-1.197,-0 -1.795,-0.311 -1.795,-0.921c-0,-0.431 0.144,-0.718 0.622,-1.329l-1.184,-0.478Zm5.444,-4.799c-0.371,-0.682 -0.706,-1.137 -1.244,-1.687l-0.802,0.419c0.467,0.514 0.862,1.077 1.22,1.735l0.826,-0.467Z" style="fill-rule:nonzero;"/><path d="M100.637,2.573c0.168,-0 0.204,0.012 0.443,0.036c0.586,0.083 1.58,0.143 2.19,0.143c0.754,0 1.268,-0.024 1.795,-0.096c-0.551,0.312 -1.137,0.671 -1.759,1.065l1.041,0.826c1.185,-0.861 2.477,-1.663 3.195,-1.986l-0.048,-1.34c-0.79,0.167 -1.639,0.227 -3.159,0.227c-1.604,-0 -2.669,-0.084 -3.59,-0.299l-0.108,1.424Zm0.886,2.704c-1.077,0.898 -1.544,1.687 -1.544,2.597c0,0.933 0.503,1.603 1.532,1.998c0.634,0.263 1.687,0.395 2.991,0.395c1.03,-0 1.795,-0.06 3.231,-0.263c0.252,-0.036 0.323,-0.036 0.527,-0.048l-0.132,-1.64c-0.766,0.288 -2.333,0.503 -3.757,0.503c-2.022,0 -2.896,-0.335 -2.896,-1.113c0,-0.514 0.335,-1.017 1.089,-1.639l-1.041,-0.79Z" style="fill-rule:nonzero;"/><path d="M113.058,1.807c1.759,0.443 3.411,0.658 5.588,0.754l0.204,-1.472l-0.335,-0c-1.891,-0 -3.662,-0.251 -4.99,-0.694l-0.467,1.412Zm-1.053,3.997c0.993,-0.407 3.387,-0.826 4.739,-0.826c1.244,-0 1.878,0.455 1.878,1.352c0,0.826 -0.514,1.58 -1.459,2.106c-0.922,0.515 -2.214,0.85 -3.602,0.91c0.371,0.562 0.502,0.861 0.622,1.495c1.951,-0.311 2.788,-0.562 3.769,-1.125c1.448,-0.825 2.274,-2.07 2.274,-3.434c-0,-0.945 -0.419,-1.747 -1.161,-2.19c-0.55,-0.335 -1.292,-0.49 -2.261,-0.49c-1.017,-0 -2.059,0.107 -3.758,0.407c-1.077,0.191 -1.077,0.191 -1.388,0.203l0.347,1.592Z" style="fill-rule:nonzero;"/><path d="M123.481,7.646c0.095,-0.143 0.119,-0.179 0.251,-0.323c0.718,-0.778 1.376,-1.579 2.357,-2.896c0.407,-0.538 0.527,-0.646 0.718,-0.646c0.228,0 0.299,0.06 1.041,0.91c1.281,1.46 1.305,1.495 2.214,2.429c0.874,0.873 1.819,1.771 2.441,2.321c0.18,0.156 0.228,0.204 0.347,0.347l0.73,-1.699c-0.395,-0.227 -0.694,-0.467 -1.304,-1.005c-1.328,-1.197 -2.489,-2.381 -3.578,-3.662c-0.371,-0.442 -0.634,-0.718 -0.802,-0.861c-0.359,-0.299 -0.718,-0.455 -1.077,-0.455c-0.299,0 -0.634,0.12 -0.957,0.359c-0.227,0.156 -0.431,0.371 -0.742,0.754c-1.579,1.986 -2.094,2.573 -2.609,2.932l0.97,1.495Z" style="fill-rule:nonzero;"/><path d="M135.267,1.376c0.036,0.263 0.036,0.347 0.048,0.766c0.048,3.315 0.263,5.05 0.754,6.246c0.479,1.149 1.125,1.735 1.927,1.735c1.017,0 1.711,-0.969 2.333,-3.302c-0.586,-0.431 -0.778,-0.611 -1.197,-1.089c-0.131,0.801 -0.347,1.519 -0.634,2.166c-0.143,0.335 -0.311,0.514 -0.49,0.514c-0.383,0 -0.766,-0.766 -0.97,-2.01c-0.131,-0.73 -0.227,-2.166 -0.227,-3.207c-0,-0.79 0.036,-1.376 0.096,-1.819l-1.64,0Zm6.043,1.137c0.718,0.885 1.293,1.855 1.699,2.944c0.419,1.088 0.694,2.333 0.766,3.458l1.484,-0.563c-0.347,-2.632 -1.185,-4.631 -2.692,-6.437l-1.257,0.598Z" style="fill-rule:nonzero;"/></g></svg>