<?xml version="1.0" encoding="UTF-8" standalone="no"?><!DOCTYPE svg PUBLIC "-//W3C//DTD SVG 1.1//EN" "http://www.w3.org/Graphics/SVG/1.1/DTD/svg11.dtd"><svg width="100%" height="100%" viewBox="0 0 20 20" version="1.1" xmlns="http://www.w3.org/2000/svg" xmlns:xlink="http://www.w3.org/1999/xlink" xml:space="preserve" xmlns:serif="http://www.serif.com/" style="fill-rule:evenodd;clip-rule:evenodd;stroke-linejoin:round;stroke-miterlimit:2;"><rect id="アートボード5" x="0" y="0" width="20" height="20" style="fill:none;"/><clipPath id="_clip1"><rect x="0" y="0" width="20" height="20"/></clipPath><g clip-path="url(#_clip1)"><circle cx="10" cy="10" r="10" style="fill:#1da1f2;"/><path d="M7.954,14.481c4.162,-0 6.437,-3.448 6.437,-6.437c0,-0.098 -0.002,-0.195 -0.006,-0.292c0.441,-0.32 0.825,-0.718 1.128,-1.172c-0.405,0.18 -0.841,0.302 -1.299,0.356c0.467,-0.28 0.826,-0.723 0.995,-1.251c-0.437,0.259 -0.921,0.448 -1.437,0.549c-0.412,-0.44 -1,-0.715 -1.651,-0.715c-1.249,0 -2.262,1.013 -2.262,2.262c-0,0.178 0.019,0.351 0.058,0.516c-1.88,-0.094 -3.547,-0.995 -4.663,-2.363c-0.194,0.334 -0.306,0.722 -0.306,1.137c-0,0.785 0.399,1.477 1.007,1.883c-0.372,-0.012 -0.72,-0.114 -1.025,-0.283c-0.001,0.009 -0.001,0.019 -0.001,0.029c0,1.095 0.78,2.01 1.815,2.217c-0.19,0.052 -0.39,0.08 -0.596,0.08c-0.146,-0 -0.287,-0.014 -0.425,-0.041c0.288,0.899 1.123,1.553 2.113,1.571c-0.774,0.607 -1.75,0.969 -2.81,0.969c-0.182,-0 -0.362,-0.011 -0.539,-0.031c1.001,0.641 2.19,1.016 3.467,1.016Z" style="fill:#fff;fill-rule:nonzero;"/></g></svg>